<?xml version="1.0" encoding="UTF-8"?>
<!DOCTYPE svg PUBLIC "-//W3C//DTD SVG 1.1//EN" "http://www.w3.org/Graphics/SVG/1.1/DTD/svg11.dtd">
<svg xmlns="http://www.w3.org/2000/svg" version="1.1" width="2528px" height="568px" style="shape-rendering:geometricPrecision; text-rendering:geometricPrecision; image-rendering:optimizeQuality; fill-rule:evenodd; clip-rule:evenodd" xmlns:xlink="http://www.w3.org/1999/xlink">
<g><path style="opacity:0.983" fill="#fefffe" d="M 564.5,208.5 C 588.833,208.081 607,218.414 619,239.5C 634.224,269.161 634.224,298.827 619,328.5C 597.633,361.362 570.133,367.862 536.5,348C 513.943,326.657 505.109,300.49 510,269.5C 513.048,246.817 523.882,228.983 542.5,216C 549.449,211.962 556.783,209.462 564.5,208.5 Z M 566.5,265.5 C 575.665,265.833 580.332,270.666 580.5,280C 580.024,290.84 574.69,295.174 564.5,293C 558.023,286.394 556.856,278.894 561,270.5C 562.73,268.598 564.563,266.931 566.5,265.5 Z"/></g>
<g><path style="opacity:0.938" fill="#fefffe" d="M 2365.5,208.5 C 2376.32,209.157 2381.99,214.99 2382.5,226C 2382.35,235.813 2377.51,241.646 2368,243.5C 2358.98,241.146 2354.48,235.313 2354.5,226C 2354.44,217.607 2358.11,211.774 2365.5,208.5 Z"/></g>
<g><path style="opacity:0.981" fill="#fefffe" d="M 4.5,211.5 C 22.1667,211.5 39.8333,211.5 57.5,211.5C 57.5,259.833 57.5,308.167 57.5,356.5C 39.8333,356.5 22.1667,356.5 4.5,356.5C 4.5,308.167 4.5,259.833 4.5,211.5 Z"/></g>
<g><path style="opacity:0.99" fill="#fefffe" d="M 79.5,211.5 C 96.8461,211.167 114.179,211.5 131.5,212.5C 137.805,221.971 144.305,231.305 151,240.5C 157.833,231 164.667,221.5 171.5,212C 188.83,211.5 206.163,211.333 223.5,211.5C 223.5,259.833 223.5,308.167 223.5,356.5C 205.833,356.5 188.167,356.5 170.5,356.5C 170.667,333.164 170.5,309.831 170,286.5C 163.667,295.167 157.333,303.833 151,312.5C 144.421,303.675 138.087,294.675 132,285.5C 131.5,309.164 131.333,332.831 131.5,356.5C 114.167,356.5 96.8333,356.5 79.5,356.5C 79.5,308.167 79.5,259.833 79.5,211.5 Z"/></g>
<g><path style="opacity:0.982" fill="#fefffe" d="M 244.5,211.5 C 272.169,211.333 299.835,211.5 327.5,212C 342.532,214.929 353.032,223.429 359,237.5C 368.202,263.15 363.036,285.316 343.5,304C 327.007,312.773 311.84,310.94 298,298.5C 297.5,317.83 297.333,337.164 297.5,356.5C 279.833,356.5 262.167,356.5 244.5,356.5C 244.5,308.167 244.5,259.833 244.5,211.5 Z M 297.5,243.5 C 308.619,242.285 313.953,247.285 313.5,258.5C 313.758,269.576 308.425,274.909 297.5,274.5C 297.5,264.167 297.5,253.833 297.5,243.5 Z"/></g>
<g><path style="opacity:0.983" fill="#fefffe" d="M 375.5,211.5 C 404.835,211.333 434.169,211.5 463.5,212C 479.226,216.059 489.392,225.892 494,241.5C 496.858,254.319 495.524,266.652 490,278.5C 487.872,281.63 485.372,284.463 482.5,287C 496.076,308.122 503.409,331.288 504.5,356.5C 486.167,356.5 467.833,356.5 449.5,356.5C 449.702,342.449 447.536,328.782 443,315.5C 440.698,308.359 435.865,304.359 428.5,303.5C 428.5,321.167 428.5,338.833 428.5,356.5C 410.833,356.5 393.167,356.5 375.5,356.5C 375.5,308.167 375.5,259.833 375.5,211.5 Z M 428.5,241.5 C 439.806,242.731 444.306,249.064 442,260.5C 439.706,266.775 435.206,269.441 428.5,268.5C 428.5,259.5 428.5,250.5 428.5,241.5 Z"/></g>
<g><path style="opacity:0.986" fill="#fefffe" d="M 629.5,211.5 C 647.167,211.5 664.833,211.5 682.5,211.5C 686.156,226.969 690.323,242.302 695,257.5C 698.784,242.195 702.95,227.028 707.5,212C 725.167,211.333 742.833,211.333 760.5,212C 747.094,259.789 733.761,307.622 720.5,355.5C 703.179,356.5 685.846,356.833 668.5,356.5C 655.657,308.129 642.657,259.796 629.5,211.5 Z"/></g>
<g><path style="opacity:0.986" fill="#fefffe" d="M 772.5,211.5 C 805.167,211.5 837.833,211.5 870.5,211.5C 870.5,223.833 870.5,236.167 870.5,248.5C 855.5,248.5 840.5,248.5 825.5,248.5C 825.5,254.167 825.5,259.833 825.5,265.5C 835.833,265.5 846.167,265.5 856.5,265.5C 856.5,277.833 856.5,290.167 856.5,302.5C 846.167,302.5 835.833,302.5 825.5,302.5C 825.5,308.167 825.5,313.833 825.5,319.5C 840.5,319.5 855.5,319.5 870.5,319.5C 870.5,331.833 870.5,344.167 870.5,356.5C 837.833,356.5 805.167,356.5 772.5,356.5C 772.5,308.167 772.5,259.833 772.5,211.5 Z"/></g>
<g><path style="opacity:0.986" fill="#fefffe" d="M 885.5,211.5 C 909.169,211.333 932.836,211.5 956.5,212C 981.109,216.936 997.276,231.436 1005,255.5C 1013.42,284.138 1009.42,310.805 993,335.5C 983.287,346.609 971.12,353.442 956.5,356C 932.836,356.5 909.169,356.667 885.5,356.5C 885.5,308.167 885.5,259.833 885.5,211.5 Z M 938.5,267.5 C 950.094,266.928 956.094,272.428 956.5,284C 956.103,295.562 950.103,301.062 938.5,300.5C 938.5,289.5 938.5,278.5 938.5,267.5 Z"/></g>
<g><path style="opacity:0.986" fill="#fefffe" d="M 1076.5,211.5 C 1105.17,211.333 1133.84,211.5 1162.5,212C 1184.59,215.925 1195.59,229.091 1195.5,251.5C 1196.37,264.575 1191.71,275.075 1181.5,283C 1197.88,295.485 1203.05,311.651 1197,331.5C 1193.17,343.333 1185.33,351.167 1173.5,355C 1141.22,356.471 1108.88,356.971 1076.5,356.5C 1076.5,308.167 1076.5,259.833 1076.5,211.5 Z M 1129.5,241.5 C 1139.43,240.599 1144.43,245.099 1144.5,255C 1144.49,264.841 1139.49,269.341 1129.5,268.5C 1129.5,259.5 1129.5,250.5 1129.5,241.5 Z M 1129.5,293.5 C 1140.32,293.32 1145.99,298.654 1146.5,309.5C 1146.02,320.255 1140.36,325.255 1129.5,324.5C 1129.5,314.167 1129.5,303.833 1129.5,293.5 Z"/></g>
<g><path style="opacity:0.992" fill="#fefffe" d="M 1488.5,211.5 C 1506.17,211.5 1523.83,211.5 1541.5,211.5C 1541.5,229.167 1541.5,246.833 1541.5,264.5C 1550.17,264.5 1558.83,264.5 1567.5,264.5C 1567.5,246.833 1567.5,229.167 1567.5,211.5C 1584.83,211.5 1602.17,211.5 1619.5,211.5C 1619.5,259.833 1619.5,308.167 1619.5,356.5C 1602.17,356.5 1584.83,356.5 1567.5,356.5C 1567.5,338.833 1567.5,321.167 1567.5,303.5C 1558.83,303.5 1550.17,303.5 1541.5,303.5C 1541.5,321.167 1541.5,338.833 1541.5,356.5C 1523.83,356.5 1506.17,356.5 1488.5,356.5C 1488.5,308.167 1488.5,259.833 1488.5,211.5 Z"/></g>
<g><path style="opacity:0.965" fill="#fefffe" d="M 1395.5,235.5 C 1409.56,232.562 1420.06,237.228 1427,249.5C 1432.88,276.942 1422.05,289.108 1394.5,286C 1382.9,281.831 1377.24,273.498 1377.5,261C 1377.76,248.263 1383.76,239.763 1395.5,235.5 Z"/></g>
<g><path style="opacity:0.979" fill="#fefffe" d="M 1677.5,239.5 C 1710.82,237.409 1730.66,252.742 1737,285.5C 1740.55,306.43 1736.22,325.43 1724,342.5C 1708.64,357.882 1690.47,362.382 1669.5,356C 1651.18,347.669 1640.35,333.503 1637,313.5C 1633.31,292.288 1637.64,272.955 1650,255.5C 1657.38,246.921 1666.55,241.588 1677.5,239.5 Z M 1683.5,285.5 C 1694.73,286.266 1698.9,292.266 1696,303.5C 1689.9,312.803 1683.9,312.803 1678,303.5C 1676.01,296.128 1677.85,290.128 1683.5,285.5 Z"/></g>
<g><path style="opacity:0.973" fill="#fefffe" d="M 1886.5,239.5 C 1914.34,237.189 1932.84,249.189 1942,275.5C 1944.9,285.97 1946.07,296.637 1945.5,307.5C 1929.5,307.333 1913.5,307.5 1897.5,308C 1905.11,323.8 1917.11,328.467 1933.5,322C 1937.92,319.588 1941.75,316.422 1945,312.5C 1949.01,327.096 1945.18,338.929 1933.5,348C 1918.96,358.307 1902.96,361.307 1885.5,357C 1864.43,349.923 1851.93,335.423 1848,313.5C 1844.08,292.946 1847.74,273.946 1859,256.5C 1866.3,247.611 1875.46,241.945 1886.5,239.5 Z M 1901.5,269.5 C 1907.46,268.626 1911.63,270.959 1914,276.5C 1915.04,279.757 1915.54,283.09 1915.5,286.5C 1908.5,286.5 1901.5,286.5 1894.5,286.5C 1894.32,279.701 1896.65,274.034 1901.5,269.5 Z"/></g>
<g><path style="opacity:0.978" fill="#fefffe" d="M 2100.5,239.5 C 2115.94,238.352 2130.94,240.352 2145.5,245.5C 2145.67,262.837 2145.5,280.17 2145,297.5C 2134.06,289.8 2122.23,287.633 2109.5,291C 2104.63,295.719 2104.3,300.719 2108.5,306C 2115.89,309.676 2123.55,310.342 2131.5,308C 2136.33,306.777 2141,305.277 2145.5,303.5C 2145.83,320.411 2145.49,337.244 2144.5,354C 2129.41,358.657 2114.08,359.657 2098.5,357C 2077.78,351.943 2064.61,339.11 2059,318.5C 2052.47,292.096 2058.64,269.263 2077.5,250C 2084.51,244.827 2092.17,241.327 2100.5,239.5 Z"/></g>
<g><path style="opacity:0.979" fill="#fefffe" d="M 2200.5,239.5 C 2233.82,237.409 2253.66,252.742 2260,285.5C 2263.55,306.43 2259.22,325.43 2247,342.5C 2231.64,357.882 2213.47,362.382 2192.5,356C 2174.18,347.669 2163.35,333.503 2160,313.5C 2156.31,292.288 2160.64,272.955 2173,255.5C 2180.38,246.921 2189.55,241.588 2200.5,239.5 Z M 2206.5,285.5 C 2217.73,286.266 2221.9,292.266 2219,303.5C 2212.9,312.803 2206.9,312.803 2201,303.5C 2199.01,296.128 2200.85,290.128 2206.5,285.5 Z"/></g>
<g><path style="opacity:0.969" fill="#fefffe" d="M 2028.5,240.5 C 2043.51,240.345 2052.35,247.678 2055,262.5C 2056.8,273.506 2054.3,283.339 2047.5,292C 2034.97,300.372 2023.81,298.872 2014,287.5C 2010.64,291.901 2008.64,296.901 2008,302.5C 2007.5,320.497 2007.33,338.497 2007.5,356.5C 1991.17,356.5 1974.83,356.5 1958.5,356.5C 1958.5,318.167 1958.5,279.833 1958.5,241.5C 1974.83,241.5 1991.17,241.5 2007.5,241.5C 2007.33,248.175 2007.5,254.842 2008,261.5C 2011.74,251.265 2018.57,244.265 2028.5,240.5 Z"/></g>
<g><path style="opacity:0.969" fill="#fefffe" d="M 2468.5,240.5 C 2483.51,240.345 2492.35,247.678 2495,262.5C 2496.8,273.506 2494.3,283.339 2487.5,292C 2474.97,300.372 2463.81,298.872 2454,287.5C 2450.64,291.901 2448.64,296.901 2448,302.5C 2447.5,320.497 2447.33,338.497 2447.5,356.5C 2431.17,356.5 2414.83,356.5 2398.5,356.5C 2398.5,318.167 2398.5,279.833 2398.5,241.5C 2414.83,241.5 2431.17,241.5 2447.5,241.5C 2447.33,248.175 2447.5,254.842 2448,261.5C 2451.74,251.265 2458.57,244.265 2468.5,240.5 Z"/></g>
<g><path style="opacity:0.975" fill="#fefffe" d="M 1202.5,241.5 C 1218.5,241.333 1234.5,241.5 1250.5,242C 1254,251.15 1257.5,260.317 1261,269.5C 1264.78,260.652 1268.28,251.652 1271.5,242.5C 1287.15,241.501 1302.82,241.167 1318.5,241.5C 1302.24,290.614 1285.57,339.614 1268.5,388.5C 1251.18,389.5 1233.85,389.833 1216.5,389.5C 1222.39,370.669 1228.39,351.836 1234.5,333C 1223.93,302.452 1213.26,271.952 1202.5,241.5 Z"/></g>
<g><path style="opacity:0.978" fill="#fefffe" d="M 1733.5,241.5 C 1749.83,241.5 1766.17,241.5 1782.5,241.5C 1785.16,250.653 1788.33,259.653 1792,268.5C 1795.17,259.65 1798.34,250.817 1801.5,242C 1817.5,241.5 1833.5,241.333 1849.5,241.5C 1836.7,279.908 1823.7,318.241 1810.5,356.5C 1798.15,356.832 1785.82,356.499 1773.5,355.5C 1759.96,317.552 1746.63,279.552 1733.5,241.5 Z"/></g>
<g><path style="opacity:0.985" fill="#fefffe" d="M 2334.5,241.5 C 2350.33,250.721 2366.16,250.721 2382,241.5C 2382.5,279.832 2382.67,318.165 2382.5,356.5C 2366.5,356.5 2350.5,356.5 2334.5,356.5C 2334.5,318.167 2334.5,279.833 2334.5,241.5 Z"/></g>
<g><path style="opacity:0.967" fill="#fefffe" d="M 2287.5,296.5 C 2304.16,295.579 2314.33,303.245 2318,319.5C 2321.11,334.279 2316.94,346.446 2305.5,356C 2289.05,362.697 2277.22,357.864 2270,341.5C 2265.21,326.052 2268.38,312.552 2279.5,301C 2282.1,299.205 2284.77,297.705 2287.5,296.5 Z"/></g>
<g><path style="opacity:0.965" fill="#fefffe" d="M 1396.5,307.5 C 1424.36,307.22 1434.19,320.554 1426,347.5C 1417.74,358.499 1406.91,361.999 1393.5,358C 1382.64,353.296 1377.31,344.963 1377.5,333C 1378.11,319.931 1384.44,311.431 1396.5,307.5 Z"/></g>
</svg>
